<?xml version="1.0" encoding="UTF-8"?>
<svg id="Layer_2" data-name="Layer 2" xmlns="http://www.w3.org/2000/svg" viewBox="0 0 587.88 567">
  <defs>
    <style>
      .cls-1 {
        fill: #534ab7;
      }

      .cls-2 {
        fill: #cecbf6;
      }

      .cls-3 {
        fill: #eeedfe;
      }

      .cls-4 {
        fill: #7f77dd;
      }

      .cls-5 {
        fill: #d7d7f4;
      }
    </style>
  </defs>
  <g id="Layer_1-2" data-name="Layer 1">
    <g>
      <rect class="cls-5" width="587.88" height="567" rx="105.5" ry="105.5"/>
      <g>
        <path class="cls-4" d="m224.19,283.75c0-53.25,28.04-99.95,70.15-126.16-22.91-14.46-50.05-22.84-79.15-22.84-82.01,0-148.5,66.49-148.5,148.5s66.49,148.5,148.5,148.5c28.76,0,55.61-8.18,78.35-22.34-41.67-26.3-69.35-72.74-69.35-125.66Z"/>
        <path class="cls-1" d="m372.69,135.25c-28.76,0-55.61,8.18-78.35,22.34,41.67,26.3,69.35,72.74,69.35,125.66s-28.04,99.95-70.15,126.16c22.91,14.46,50.05,22.84,79.15,22.84,82.01,0,148.5-66.49,148.5-148.5s-66.49-148.5-148.5-148.5Z"/>
        <circle class="cls-2" cx="294.19" cy="283.25" r="57"/>
        <circle class="cls-3" cx="294.19" cy="283.25" r="39.91"/>
      </g>
    </g>
  </g>
</svg>